<svg xmlns="http://www.w3.org/2000/svg" viewBox="0 0 43 43">
  <title>dribbble</title>
  <g>
    <circle cx="21.5" cy="21.5" r="19" fill="#00a746"/>
    <path d="M21.5,42.5a21,21,0,1,1,21-21,21,21,0,0,1-21,21ZM39.2,24.37A26.42,26.42,0,0,0,28,23.59a76.69,76.69,0,0,1,3.48,12.78A17.83,17.83,0,0,0,39.2,24.37ZM28.51,38a74.54,74.54,0,0,0-3.82-13.6l-.11,0C14.45,28,10.82,35,10.49,35.67a17.85,17.85,0,0,0,11,3.78,17.51,17.51,0,0,0,7-1.41ZM8.18,33.52c.41-.69,5.33-8.84,14.59-11.84.23-.08.48-.15.71-.21-.44-1-.94-2-1.46-3A66.18,66.18,0,0,1,3.57,21c0,.18,0,.36,0,.54a18,18,0,0,0,4.63,12ZM3.95,17.85a66.32,66.32,0,0,0,16.59-2.18A114.67,114.67,0,0,0,13.89,5.3,18,18,0,0,0,3.95,17.85ZM17.3,4.08A94.45,94.45,0,0,1,24,14.58c6.38-2.4,9.07-6,9.4-6.47A17.87,17.87,0,0,0,21.5,3.59,18.6,18.6,0,0,0,17.3,4.08Zm18.08,6.09c-.38.51-3.38,4.37-10,7.08.41.85.82,1.72,1.2,2.6.13.31.26.62.39.92a42.09,42.09,0,0,1,12.49.57,17.88,17.88,0,0,0-4.07-11.17Z" fill="#fff"/>
  </g>
</svg>
