<svg xmlns="http://www.w3.org/2000/svg" viewBox="0 0 930 208">
  <title>site-en-construction</title>
  <g>
    <path d="M47,60.58A12.72,12.72,0,0,1,40.48,62q-13.42,0-25-9.24L3.63,66.94a47.58,47.58,0,0,0,16.44,9.63A59.13,59.13,0,0,0,37,79.72v7.56a1.52,1.52,0,1,0,3,0V79.76c.67,0,1.31,0,2-.06v3.58a1.52,1.52,0,1,0,3,0v-3.8a40.76,40.76,0,0,0,7.43-1.41,28.66,28.66,0,0,0,9.79-4.94,22.65,22.65,0,0,0,6.32-7.85,23.71,23.71,0,0,0,2.26-10.54v-.22a20.27,20.27,0,0,0-2-9.28,18.69,18.69,0,0,0-5.72-6.64,35.76,35.76,0,0,0-9.08-4.67,94.25,94.25,0,0,0-11.93-3.35q-4-.88-6.55-1.7a22.94,22.94,0,0,1-4.07-1.65,5.48,5.48,0,0,1-2.09-1.81,4.31,4.31,0,0,1-.6-2.3V22.9a4.25,4.25,0,0,1,1.92-3.51A9.65,9.65,0,0,1,36.52,18a32.73,32.73,0,0,1,10.73,1.92,43.34,43.34,0,0,1,10.83,5.67L68.75,10.43a44.54,44.54,0,0,0-14-7.69A55.4,55.4,0,0,0,37.07.13,39.67,39.67,0,0,0,24.64,1.95a27.94,27.94,0,0,0-9.4,5.11,21.91,21.91,0,0,0-5.94,7.8,23.7,23.7,0,0,0-2,9.88v.22a20,20,0,0,0,2.25,9.94,19.88,19.88,0,0,0,6.16,6.7A35,35,0,0,0,24.86,46q5.28,1.7,11.44,3.13,4,.88,6.44,1.7a21,21,0,0,1,4,1.7,5.62,5.62,0,0,1,2,1.81,4.15,4.15,0,0,1,.55,2.14v.22A4.33,4.33,0,0,1,47,60.58Z" fill="#00a746"/>
    <rect x="81.62" y="1.45" width="21.45" height="77" fill="#00a746"/>
    <polygon points="112.86 20.15 135.96 20.15 135.96 78.45 157.3 78.45 157.3 20.15 180.4 20.15 180.4 1.45 112.86 1.45 112.86 20.15" fill="#00a746"/>
    <polygon points="252.12 60.3 210.76 60.3 210.76 48.09 247.72 48.09 247.72 31.26 210.76 31.26 210.76 19.6 251.57 19.6 251.57 1.45 189.75 1.45 189.75 78.45 252.12 78.45 252.12 60.3" fill="#00a746"/>
    <polygon points="355.96 60.3 314.6 60.3 314.6 48.09 351.56 48.09 351.56 31.26 314.6 31.26 314.6 19.6 355.41 19.6 355.41 1.45 293.59 1.45 293.59 78.45 355.96 78.45 355.96 60.3" fill="#00a746"/>
    <polygon points="387.97 36.21 420.93 78.45 439.67 78.45 439.67 1.45 418.66 1.45 418.66 42.15 386.91 1.45 366.96 1.45 366.96 78.45 387.97 78.45 387.97 36.21" fill="#00a746"/>
    <path d="M61,151.18a24.43,24.43,0,0,1-3.85,3,16.56,16.56,0,0,1-4.51,1.93,21.11,21.11,0,0,1-5.45.66,17.06,17.06,0,0,1-7.42-1.59A17.73,17.73,0,0,1,34,150.79a20.17,20.17,0,0,1-3.79-6.54,23.52,23.52,0,0,1-1.37-8.08v-.22A22.75,22.75,0,0,1,30.2,128,20.32,20.32,0,0,1,34,121.53a17.77,17.77,0,0,1,5.77-4.35,17.09,17.09,0,0,1,7.42-1.59A18,18,0,0,1,56.76,118a27.77,27.77,0,0,1,7.26,6.6l16.06-12.43a42.21,42.21,0,0,0-5.77-6.49A35.45,35.45,0,0,0,67,100.58a36.86,36.86,0,0,0-8.85-3.3,46.5,46.5,0,0,0-10.78-1.16A42,42,0,0,0,31.19,99.2a38.64,38.64,0,0,0-12.81,8.52A40.17,40.17,0,0,0,6.82,136.16v.22a40,40,0,0,0,11.6,28.54A37.86,37.86,0,0,0,31,173.23a40.57,40.57,0,0,0,15.51,3A46.07,46.07,0,0,0,58,174.88a38.54,38.54,0,0,0,9.24-3.63,34.46,34.46,0,0,0,7.37-5.5,57.36,57.36,0,0,0,6-6.93L64.57,147.38A44.78,44.78,0,0,1,61,151.18Z" fill="#00a746"/>
    <path d="M158.29,107.78a40.66,40.66,0,0,0-13.09-8.52,45,45,0,0,0-33,0A41.46,41.46,0,0,0,99,107.84a39.24,39.24,0,0,0-11.88,28.33v.22a38.7,38.7,0,0,0,3.13,15.51,39.34,39.34,0,0,0,8.64,12.65A40.61,40.61,0,0,0,112,173.07a42.79,42.79,0,0,0,16.5,3.14c.51,0,1,0,1.52,0v13.11a1.52,1.52,0,1,0,3,0V176a41.84,41.84,0,0,0,25.14-11.5,39.25,39.25,0,0,0,11.88-28.33v-.22a38.69,38.69,0,0,0-3.14-15.51A39.39,39.39,0,0,0,158.29,107.78Zm-10,28.6a21.93,21.93,0,0,1-1.44,7.92,20.68,20.68,0,0,1-4,6.54,18.53,18.53,0,0,1-6.18,4.46,19.28,19.28,0,0,1-8.05,1.65,18.73,18.73,0,0,1-8.05-1.71,19.4,19.4,0,0,1-6.23-4.56,20.8,20.8,0,0,1-4-6.6,21.93,21.93,0,0,1-1.43-7.92v-.22a22.71,22.71,0,0,1,1.38-7.92,19.18,19.18,0,0,1,10.15-11,20,20,0,0,1,16,.06,20.09,20.09,0,0,1,6.29,4.56,20.37,20.37,0,0,1,4.08,6.6,21.94,21.94,0,0,1,1.44,7.92Z" fill="#00a746"/>
    <polygon points="232.87 138.36 201.12 97.66 181.17 97.66 181.17 174.66 202.18 174.66 202.18 132.42 235.14 174.66 253.88 174.66 253.88 97.66 232.87 97.66 232.87 138.36" fill="#00a746"/>
    <path d="M321.2,134.81a35.76,35.76,0,0,0-9.08-4.67,94.25,94.25,0,0,0-11.93-3.35q-4-.88-6.55-1.7a22.94,22.94,0,0,1-4.07-1.65,5.48,5.48,0,0,1-2.09-1.81,4.31,4.31,0,0,1-.6-2.3v-.22a4.25,4.25,0,0,1,1.92-3.51,9.65,9.65,0,0,1,5.77-1.43,32.73,32.73,0,0,1,10.73,1.92,43.34,43.34,0,0,1,10.83,5.67l10.67-15.12a44.54,44.54,0,0,0-14-7.69,55.4,55.4,0,0,0-17.65-2.6,39.67,39.67,0,0,0-12.43,1.81,27.94,27.94,0,0,0-9.4,5.11,21.91,21.91,0,0,0-5.94,7.8,23.7,23.7,0,0,0-2,9.88v.22a18.74,18.74,0,0,0,8.42,16.64,35,35,0,0,0,9.19,4.39q5.28,1.7,11.44,3.13,4,.88,6.44,1.7a21,21,0,0,1,4,1.7,5.62,5.62,0,0,1,2,1.81,4.15,4.15,0,0,1,.55,2.14v.22a4.33,4.33,0,0,1-2.26,3.9,12.72,12.72,0,0,1-6.54,1.37q-13.42,0-25-9.24l-11.88,14.22a47.58,47.58,0,0,0,16.44,9.63A59.78,59.78,0,0,0,297.77,176a44.69,44.69,0,0,0,12.76-1.7,28.66,28.66,0,0,0,9.79-4.94,22.65,22.65,0,0,0,6.32-7.85,23.71,23.71,0,0,0,2.26-10.54v-.22a20.27,20.27,0,0,0-2-9.28A18.69,18.69,0,0,0,321.2,134.81Z" fill="#00a746"/>
    <polygon points="334.95 116.36 358.05 116.36 358.05 174.66 379.39 174.66 379.39 116.36 402.49 116.36 402.49 97.66 334.95 97.66 334.95 116.36" fill="#00a746"/>
    <path d="M475.86,138.91q4.29-5.83,4.29-14.74V124q0-11.33-6.82-17.93a25.82,25.82,0,0,0-10-6.16,45.11,45.11,0,0,0-15.07-2.2H411.84v77h21.34V151.34h9.35L458,174.66h24.64l-18.37-26.84A27.12,27.12,0,0,0,475.86,138.91ZM458.7,125.49a8.22,8.22,0,0,1-3,6.65q-3,2.47-8.47,2.48H433.18V116.14h14q5.39,0,8.47,2.25t3.08,6.88Z" fill="#00a746"/>
    <path d="M539.88,141q0,8.14-3.82,12t-10.26,3.85q-6.44,0-10.26-4t-3.82-12.37V97.66H489.94v43.23a44.92,44.92,0,0,0,2.47,15.67,28.39,28.39,0,0,0,7.09,11A28.77,28.77,0,0,0,510.72,174a49.12,49.12,0,0,0,14.85,2.09A49.66,49.66,0,0,0,540.48,174a27.92,27.92,0,0,0,18.59-17.54,45.18,45.18,0,0,0,2.58-16.11V97.66H539.88Z" fill="#00a746"/>
    <path d="M625.84,151.18a24.48,24.48,0,0,1-3.85,3,16.56,16.56,0,0,1-4.51,1.93,21.11,21.11,0,0,1-5.45.66,17.06,17.06,0,0,1-7.42-1.59,17.73,17.73,0,0,1-5.78-4.35,20.18,20.18,0,0,1-3.79-6.54,23.52,23.52,0,0,1-1.37-8.08v-.22A22.75,22.75,0,0,1,595,128a20.33,20.33,0,0,1,3.79-6.49,17.77,17.77,0,0,1,5.78-4.35,17.09,17.09,0,0,1,7.42-1.59A18,18,0,0,1,621.6,118a27.77,27.77,0,0,1,7.26,6.6l16.06-12.43a42.24,42.24,0,0,0-5.78-6.49,35.46,35.46,0,0,0-7.26-5.11,36.85,36.85,0,0,0-8.86-3.3,46.5,46.5,0,0,0-10.78-1.16A42,42,0,0,0,596,99.2a38.63,38.63,0,0,0-12.81,8.52,40.17,40.17,0,0,0-11.55,28.44v.22a40,40,0,0,0,11.61,28.54,37.87,37.87,0,0,0,12.59,8.3,39.47,39.47,0,0,0,9.14,2.5v15.55a1.52,1.52,0,1,0,3,0V176.07c.5,0,1,.07,1.52.09v30.32a1.52,1.52,0,1,0,3,0V176.17a45,45,0,0,0,10.27-1.29,38.54,38.54,0,0,0,9.24-3.63,34.46,34.46,0,0,0,7.37-5.5,57.36,57.36,0,0,0,6-6.93l-16.06-11.44A44.7,44.7,0,0,1,625.84,151.18Z" fill="#00a746"/>
    <polygon points="650.31 116.36 673.41 116.36 673.41 174.66 694.75 174.66 694.75 116.36 717.85 116.36 717.85 97.66 650.31 97.66 650.31 116.36" fill="#00a746"/>
    <rect x="727.64" y="97.66" width="21.45" height="77" fill="#00a746"/>
    <path d="M831.7,107.78a40.64,40.64,0,0,0-13.09-8.52,45,45,0,0,0-33,0,41.47,41.47,0,0,0-13.2,8.58,39.26,39.26,0,0,0-11.88,28.33v.22a38.69,38.69,0,0,0,3.14,15.51,39.34,39.34,0,0,0,8.63,12.65,40.61,40.61,0,0,0,13.09,8.52,45,45,0,0,0,33,0,41.47,41.47,0,0,0,13.2-8.58,39.24,39.24,0,0,0,11.88-28.33v-.22a38.7,38.7,0,0,0-3.13-15.51A39.4,39.4,0,0,0,831.7,107.78Zm-10,28.6a21.94,21.94,0,0,1-1.43,7.92,20.69,20.69,0,0,1-4,6.54,18.52,18.52,0,0,1-6.18,4.46,19.29,19.29,0,0,1-8.05,1.65,18.73,18.73,0,0,1-8.05-1.71,19.39,19.39,0,0,1-6.23-4.56,20.78,20.78,0,0,1-4-6.6,21.92,21.92,0,0,1-1.43-7.92v-.22a22.7,22.7,0,0,1,1.38-7.92,19.18,19.18,0,0,1,10.15-11,18.81,18.81,0,0,1,7.72-1.64v1.1a1.52,1.52,0,1,0,3,0v-.91a18.87,18.87,0,0,1,2,.36v11.55a1.52,1.52,0,1,0,3,0V117l.29.12a20.09,20.09,0,0,1,6.29,4.56,20.37,20.37,0,0,1,4.08,6.6,22,22,0,0,1,1.43,7.92Z" fill="#00a746"/>
    <polygon points="906.28 97.66 906.28 138.36 874.53 97.66 854.58 97.66 854.58 174.66 875.59 174.66 875.59 132.42 908.55 174.66 927.29 174.66 927.29 97.66 906.28 97.66" fill="#00a746"/>
  </g>
</svg>
